# xmcd CD database file
#
# Track frame offsets:
#	150
#	40040
#	66718
#	81424
#	123573
#	172581
#	202714
#	227027
#	269748
#	309660
#
# Disc length: 4421 seconds
#
# Revision: 0
# Processed by: cddbd v1.5.2PL0 Copyright (c) Steve Scherf et al.
# Submitted via: CDex 1.51
#
DISCID=8911430a
DTITLE=Thelonious Monk - The Quintessence CD2
DYEAR=2011
DGENRE=Jazz
TTITLE0=Pannon Ica
TTITLE1=Tea For Two
TTITLE2=I Should Care
TTITLE3=Functional
TTITLE4=Epistrophy
TTITLE5=Trinckle Tinckle
TTITLE6=Rhythm-A-Ning (Version I)
TTITLE7=Rhythm-A-Ning (Version II)
TTITLE8=Little Rootie Tootie
TTITLE9=Crepuscule With Nellie
EXTD=YEAR: 2011
EXTT0=
EXTT1=
EXTT2=
EXTT3=
EXTT4=
EXTT5=
EXTT6=
EXTT7=
EXTT8=
EXTT9=
PLAYORDER=
